<?xml version="1.0" encoding="UTF-8"?>
<svg xmlns="http://www.w3.org/2000/svg" viewBox="0 0 1024 1024" width="1024" height="1024">
  <defs>
    <radialGradient id="body" cx="392" cy="312" r="780" fx="392" fy="312" gradientUnits="userSpaceOnUse">
      <stop offset="0" stop-color="#fffee8"/>
      <stop offset="0.22" stop-color="#fff59c"/>
      <stop offset="0.65" stop-color="#ffe85c"/>
      <stop offset="1" stop-color="#ffd22e"/>
    </radialGradient>
    <radialGradient id="shadow" cx="772" cy="812" r="500" fx="772" fy="812" gradientUnits="userSpaceOnUse">
      <stop offset="0" stop-color="#c99f12" stop-opacity="0.22"/>
      <stop offset="1" stop-color="#c99f12" stop-opacity="0"/>
    </radialGradient>
  </defs>
  <!-- Lacasito cuadrado convexo (radio esquinas 225, estilo iOS) -->
  <path fill="url(#body)" d="M 237 12 L 787 12 C 911.264 12 1012 112.736 1012 237 L 1012 787 C 1012 911.264 911.264 1012 787 1012 L 237 1012 C 112.736 1012 12 911.264 12 787 L 12 237 C 12 112.736 112.736 12 237 12 Z"/>
  <path fill="url(#shadow)" d="M 237 12 L 787 12 C 911.264 12 1012 112.736 1012 237 L 1012 787 C 1012 911.264 911.264 1012 787 1012 L 237 1012 C 112.736 1012 12 911.264 12 787 L 12 237 C 12 112.736 112.736 12 237 12 Z"/>
  <text x="512" y="625" text-anchor="middle"
        font-family="Rockwell" font-weight="700"
        font-size="340" letter-spacing="-15" fill="#2e2e33">WW</text>
</svg>
